<svg xmlns="http://www.w3.org/2000/svg" viewBox="0 0 100 100" width="100" height="100">
  <!-- SZ monogram for shijie zhou: a seal-like rounded frame, the S in ink and the Z in the site's red,
       set as a tight serif ligature. Glyphs are baked to paths (Georgia Bold Italic) so it renders identically everywhere. -->
  <rect x="5" y="5" width="90" height="90" rx="24" ry="24" fill="#ffffff" stroke="#1f1f1f" stroke-width="6"/>
  <path fill="#1f1f1f" d="M31.127910156250003 71.08617187499999Q27.786113281250003 71.08617187499999 24.401835937500003 70.26488281249999Q21.017558593750003 69.44359374999999 18.468730468750003 68.02757812499999L16.033183593750003 70.00999999999999H13.625957031250003L16.627910156250003 55.48167968749999H19.063457031250003Q19.403300781250003 57.60570312499999 20.309550781250003 59.88548828124999Q21.215800781250003 62.16527343749999 22.660136718750003 63.94945312499999Q24.076152343750003 65.79027343749999 26.256816406250003 67.00804687499999Q28.437480468750003 68.22582031249999 31.241191406250003 68.22582031249999Q35.34763671875 68.22582031249999 37.81150390625 66.22923828124999Q40.27537109375 64.23265624999999 40.27537109375 60.97582031249999Q40.27537109375 58.88011718749999 38.873515625 57.29417968749999Q37.47166015625 55.70824218749999 34.35642578125 54.57542968749999Q32.37400390625 53.86742187499999 30.519023437500003 53.20189453124999Q28.664042968750003 52.53636718749999 26.993144531250003 51.82835937499999Q23.679667968750003 50.44066406249999 22.008769531250003 47.87767578124999Q20.337871093750003 45.31468749999999 20.337871093750003 42.42601562499999Q20.337871093750003 39.76390624999999 21.555644531250003 37.31419921874999Q22.773417968750003 34.86449218749999 25.067363281250003 32.93871093749999Q27.304667968750003 31.04124999999999 30.603984375000003 29.89427734374999Q33.90330078125 28.74730468749999 37.83982421875 28.74730468749999Q41.12498046875 28.74730468749999 44.35349609375 29.69603515624999Q47.58201171875 30.64476562499999 49.11130859375 31.52269531249999L51.23533203125 29.82347656249999H53.69919921875L50.75388671875 43.53050781249999H48.31833984375Q47.95017578125 41.12328124999999 47.256328125 38.99925781249999Q46.56248046875 36.87523437499999 45.34470703125 35.17601562499999Q44.15525390625 33.53343749999999 42.385234375 32.55638671874999Q40.61521484375 31.57933593749999 38.12302734375 31.57933593749999Q34.66794921875 31.57933593749999 32.35984375 33.50511718749999Q30.051738281250003 35.43089843749999 30.051738281250003 38.34789062499999Q30.051738281250003 40.38695312499999 31.439433593750003 41.91624999999999Q32.82712890625 43.44554687499999 35.82908203125 44.57835937499999Q37.58494140625 45.22972656249999 39.51072265625 45.92357421874999Q41.43650390625 46.61742187499999 43.19236328125 47.35374999999999Q46.47751953125 48.71312499999999 48.37498046875 51.04955078124999Q50.27244140625 53.38597656249999 50.27244140625 56.58617187499999Q50.27244140625 59.61644531249999 48.88474609375 62.27855468749999Q47.49705078125 64.94066406249999 45.00486328125 66.86644531249999Q42.37107421875 68.90550781249999 38.85935546875 69.99583984374999Q35.34763671875 71.08617187499999 31.127910156250003 71.08617187499999Z"/>
  <path fill="#c0392b" d="M89.43263671875 29.82347656249999 89.03615234375 31.55101562499999 55.448261718750004 67.54613281249999H65.04884765625Q69.80666015625 67.54613281249999 71.6333203125 67.07884765624999Q73.45998046875 66.61156249999999 74.47951171875 65.64867187499999Q76.34865234375 63.89281249999999 78.4868359375 61.30150390624999Q80.62501953125 58.71019531249999 82.21095703125 56.44457031249999H84.33498046875L79.83205078125 70.00999999999999H42.392597656250004L42.817402343750004 68.28246093749999L76.40529296875 32.28734374999999H68.16408203125Q65.47365234375 32.28734374999999 64.25587890625 32.44310546874999Q63.038105468750004 32.59886718749999 61.848652343750004 33.08031249999999Q60.545917968750004 33.53343749999999 58.450214843750004 35.65746093749999Q56.354511718750004 37.78148437499999 52.984394531250004 42.08617187499999H50.690449218750004L54.768574218750004 29.82347656249999Z"/>
</svg>
